<svg viewBox="0 0 108 81" fill="none" xmlns="http://www.w3.org/2000/svg">
<path d="M11.124 1H96.876C102.509 1 107 5.36041 107 10.6475V70.3525C107 75.6396 102.509 80 96.876 80H11.124C5.49094 80 1 75.6396 1 70.3525V10.6475C1 5.36041 5.49094 1 11.124 1Z" stroke="black" stroke-width="2"/>
<path d="M53.7462 15.7275H53.7677C58.458 15.7275 62.215 19.3281 62.215 23.7148V39.8682C62.2148 44.2547 58.4579 47.8555 53.7677 47.8555H53.7462C49.056 47.8555 45.2991 44.2547 45.299 39.8682V23.7148C45.299 19.3281 49.0559 15.7275 53.7462 15.7275Z" fill="black" stroke="black"/>
<path d="M66.9999 39.3206C66.9999 46.2704 61.0723 51.8935 53.7459 51.8935C46.4196 51.8935 40.4919 46.2704 40.4919 39.3206" stroke="black" stroke-width="2" stroke-miterlimit="10"/>
<path d="M47.4631 65.6667H60.051" stroke="black" stroke-width="2" stroke-miterlimit="10"/>
<path d="M53.7681 51.051V65.6668" stroke="black" stroke-width="2" stroke-miterlimit="10"/>
</svg>
