<svg width="199" height="45" viewBox="0 0 199 45" fill="none" xmlns="http://www.w3.org/2000/svg">
<g clip-path="url(#clip0_647_909)">
<path d="M22.5 45C34.9264 45 45 34.9264 45 22.5C45 10.0736 34.9264 0 22.5 0C10.0736 0 0 10.0736 0 22.5C0 34.9264 10.0736 45 22.5 45Z" fill="white"/>
<path d="M31.356 11.3582H28.719C26.127 11.3582 25.317 12.9692 25.317 14.6252V18.5492H31.113L30.186 24.5882H25.317V39.1952H18.783V24.5882H13.473V18.5492H18.783V13.9412C18.783 8.70318 21.906 5.80518 26.676 5.80518C28.962 5.80518 31.356 6.21018 31.356 6.21018V11.3492V11.3582Z" fill="black"/>
</g>
<g clip-path="url(#clip1_647_909)">
<path d="M99.5 45C111.926 45 122 34.9264 122 22.5C122 10.0736 111.926 0 99.5 0C87.0736 0 77 10.0736 77 22.5C77 34.9264 87.0736 45 99.5 45Z" fill="white"/>
<path d="M104.288 34.605L97.835 25.209L89.744 34.605H87.647L96.899 23.859L87.647 10.395H94.712L100.823 19.296L108.482 10.395H110.579L101.75 20.646L111.353 34.605H104.288Z" fill="black"/>
<path d="M99.725 20.5739L93.704 11.9609H90.491L97.952 22.6349L98.888 23.9759L105.278 33.1109H108.491L100.661 21.9149L99.725 20.5739Z" fill="white"/>
</g>
<g clip-path="url(#clip2_647_909)">
<path d="M176.5 0C164.071 0 154 10.071 154 22.5C154 34.929 164.071 45 176.5 45C188.929 45 199 34.929 199 22.5C199 10.071 188.929 0 176.5 0Z" fill="white"/>
<path d="M185.176 12.2041H168.661C165.097 12.2041 162.208 15.0932 162.208 18.6571V26.3431C162.208 29.907 165.097 32.7961 168.661 32.7961H185.176C188.74 32.7961 191.629 29.907 191.629 26.3431V18.6571C191.629 15.0932 188.74 12.2041 185.176 12.2041Z" fill="black"/>
<path d="M181.612 22.3111L174.529 18.4591C174.241 18.2971 173.242 18.5041 173.242 18.8371V26.3521C173.242 26.6851 174.232 26.8921 174.52 26.7391L181.927 23.0761C182.224 22.9141 181.918 22.4821 181.621 22.3111H181.612Z" fill="white"/>
</g>
<defs>
<clipPath id="clip0_647_909">
<rect width="45" height="45" fill="white"/>
</clipPath>
<clipPath id="clip1_647_909">
<rect width="45" height="45" fill="white" transform="translate(77)"/>
</clipPath>
<clipPath id="clip2_647_909">
<rect width="45" height="45" fill="white" transform="translate(154)"/>
</clipPath>
</defs>
</svg>
