<svg width="108" height="104" viewBox="0 0 108 104" fill="none" xmlns="http://www.w3.org/2000/svg">
<path d="M53.9277 0C68.3268 9.46169e-05 79.9998 11.5712 80 25.8447C80 40.1181 56.1636 75.3175 53.9277 75.3193C51.693 75.3193 27.8555 40.1185 27.8555 25.8447C27.8557 11.5711 39.5286 0 53.9277 0ZM53.9277 15.4531C48.0615 15.4532 43.3059 20.2081 43.3057 26.0742C43.3057 31.9406 48.0614 36.6963 53.9277 36.6963C59.7941 36.6963 64.5498 31.9406 64.5498 26.0742C64.5496 20.2081 59.794 15.4531 53.9277 15.4531Z" fill="black"/>
<path d="M96.1172 54L106.759 103H1.24121L11.8828 54H96.1172Z" stroke="black" stroke-width="2"/>
<path d="M42.157 102.898C42.157 85.6751 66.5481 84.5803 66.5481 74.609C66.5481 62.824 74.8057 58.7163 97.5596 58.7163" stroke="black"/>
<path d="M27.2125 102.883C41.4308 88.5627 35.645 58 11 58" stroke="black"/>
</svg>
