<svg width="109" height="103" viewBox="0 0 109 103" fill="none" xmlns="http://www.w3.org/2000/svg">
<path d="M57.4725 99C39.9154 99 22.3225 99 4.7296 99C5.30172 89.5507 2.90594 79.1181 7.6975 70.866C10.9157 65.3076 16.2794 61.7588 21.9292 61.3312C26.9353 60.9464 39.1287 60.6471 43.6342 61.9298C50.3567 63.8539 56.5071 71.2935 57.401 79.6311C58.0447 85.6598 57.0434 92.843 57.4725 98.9572V99Z" fill="black"/>
<path d="M29.5313 22.0314C43.6608 21.1976 52.8259 37.1432 44.3898 48.7464C38.3839 56.9797 27.3789 58.4735 19.533 51.8382C7.97248 42.0416 14.4644 22.8999 29.566 22.0314H29.5313Z" fill="black"/>
<path d="M1 102H107" stroke="black" stroke-width="2" stroke-linecap="round"/>
<path d="M80.6469 0C95.8347 0 108.147 12.3122 108.147 27.5C108.147 42.6878 95.8347 55 80.6469 55C71.3178 55 63.0751 50.3537 58.1029 43.25L50.5736 43.9482L54.3812 35.6709C53.5791 33.0895 53.1469 30.3452 53.1469 27.5C53.1469 12.3122 65.459 0 80.6469 0Z" fill="black"/>
<path d="M66.8998 33.8824L72.6855 40L93.8998 14" stroke="white" stroke-width="3" stroke-linecap="round"/>
</svg>
