<svg viewBox="0 0 104 72" fill="none" xmlns="http://www.w3.org/2000/svg">
<path d="M27.5 5C37.1649 5.00007 45 12.7669 45 22.3477C44.9995 31.9284 29.0008 55.5543 27.5 55.5557C26 55.5557 10.0005 31.9287 10 22.3477C10 12.7669 17.835 5 27.5 5ZM27.5 15.3721C23.5626 15.3722 20.3703 18.5636 20.3701 22.501C20.3701 26.4385 23.5625 29.6307 27.5 29.6309C31.4376 29.6309 34.6299 26.4386 34.6299 22.501C34.6297 18.5635 31.4375 15.3721 27.5 15.3721Z" fill="black"/>
<path d="M99 1V60.1113H1V1H99Z" stroke="black" stroke-width="2" stroke-linejoin="round"/>
<path d="M74 1C51.778 20.6668 59.1851 60 59.1851 60" stroke="black"/>
<path d="M52 60C52 42.9063 30.4966 50.2177 20.507 39.5053C11.2607 29.5897 14.082 1 0 1" stroke="black"/>
<circle cx="85" cy="53" r="19" fill="black"/>
<path d="M78.9546 63.3046C75.3406 61.2297 72.9091 57.3515 72.9091 52.9096C72.9091 46.2819 78.3224 40.9091 85 40.9091" stroke="white" stroke-linecap="round"/>
<path d="M90.1818 42.2448C94.2667 44.1708 97.0909 48.3033 97.0909 53.0904C97.0909 59.7181 91.6776 65.0909 85 65.0909" stroke="white" stroke-linecap="round"/>
<path d="M87.5909 40.9091L83.7045 43.1529L83.7045 38.6654L87.5909 40.9091Z" fill="white"/>
<path d="M82.4091 65.0909L86.2955 62.8471L86.2955 67.3346L82.4091 65.0909Z" fill="white"/>
</svg>
