<svg width="221" height="44" viewBox="0 0 221 44" fill="none" xmlns="http://www.w3.org/2000/svg">
<path fill-rule="evenodd" clip-rule="evenodd" d="M55.1616 37.5759V4.7959H59.67L79.6484 33.8799V4.7959H83.0518V37.5759H78.0572L58.565 8.9319V37.5759H55.1616Z" fill="white"/>
<path fill-rule="evenodd" clip-rule="evenodd" d="M27.9786 4.7959V37.5759H50.388V34.6279H31.3378V22.0879H48.9294V19.1399H31.3378V7.6999H50.388V4.7959H27.9786Z" fill="white"/>
<path d="M0 4.7959V37.5759H3.4034V20.1519V4.7959H0Z" fill="white"/>
<path fill-rule="evenodd" clip-rule="evenodd" d="M8.04443 20.2399L24.7078 4.7959H20.0226L3.44763 20.1519L21.1276 37.5759H25.636L8.04443 20.2399Z" fill="white"/>
<path d="M124.688 4.7959L113.285 31.7239L106.876 17.8199L100.422 31.8559L89.063 4.7959H85.4386L100.201 39.9079L106.876 25.2119L113.506 39.9079L128.268 4.7959H124.688Z" fill="white"/>
<path fill-rule="evenodd" clip-rule="evenodd" d="M101.439 4.7959H112.268L106.876 16.8079L101.439 4.7959Z" fill="#D91B23"/>
<mask id="mask0_465_1042" style="mask-type:luminance" maskUnits="userSpaceOnUse" x="0" y="4" width="241" height="40">
<path d="M241 4.46387H0V43.5839H241V4.46387Z" fill="white"/>
</mask>
<g mask="url(#mask0_465_1042)">
<path fill-rule="evenodd" clip-rule="evenodd" d="M205.221 4.66406H194.303V37.4441H207.033C214.945 37.4441 221 30.0521 221 20.5041C221 10.9561 212.867 4.66406 205.221 4.66406ZM206.458 34.5401H197.662V7.61206H204.867C209.243 7.61206 217.597 11.8801 217.597 20.8561C217.597 30.2721 211.055 34.5401 206.414 34.5401" fill="white"/>
<path fill-rule="evenodd" clip-rule="evenodd" d="M141.882 4.0918C133.484 4.0918 126.633 11.8798 126.633 21.4718C126.633 31.0638 133.44 38.8518 141.882 38.8518C150.324 38.8518 157.131 31.0638 157.131 21.4718C157.131 11.8798 150.324 4.0918 141.882 4.0918ZM141.882 35.8158C135.34 35.8158 129.992 29.3918 129.992 21.4718C129.992 13.5518 135.296 7.1278 141.882 7.1278C148.468 7.1278 153.772 13.5518 153.772 21.4718C153.772 29.3918 148.468 35.8158 141.882 35.8158Z" fill="white"/>
<path fill-rule="evenodd" clip-rule="evenodd" d="M175.165 4.0918C166.767 4.0918 159.916 11.8798 159.916 21.4718C159.916 31.0638 166.722 38.8518 175.165 38.8518C183.607 38.8518 190.414 31.0638 190.414 21.4718C190.414 11.8798 183.607 4.0918 175.165 4.0918ZM175.165 35.8158C168.623 35.8158 163.275 29.3918 163.275 21.4718C163.275 13.5518 168.579 7.1278 175.165 7.1278C181.75 7.1278 187.054 13.5518 187.054 21.4718C187.054 29.3918 181.75 35.8158 175.165 35.8158Z" fill="white"/>
</g>
</svg>
